<?xml version="1.0" encoding="UTF-8"?>
<svg id="Layer_2" xmlns="http://www.w3.org/2000/svg" viewBox="0 0 313.63 307.2">
  <defs>
    <style>
      .cls-1 {
        fill: #d9e1e5;
      }
    </style>
  </defs>
  <g id="Layer_1-2" data-name="Layer_1">
    <g>
      <g>
        <path class="cls-1" d="M277.7,0v.2q-.1,0,0-.2Z"/>
        <path class="cls-1" d="M286.7,98.5l-90.8.8s.4-5-2.6-5h-.1c-48.5.2-97.1.4-145.6.6-3.3,0-6.1,2.8-6,6.2v33.9c0,3.4,2.7,6.1,6.1,6.1h0c0,.2,0,.7.1,1.5.5,3.7,3.1,13.1,17.9,13.1h.4l77.4-.8c1.7,0,3.2-2.2,3.3-4.8v.3c0-.3-.5-4.1-3.1-3.7h0l-77.7.8h0c-.9,0-6-2-6-6.5h0l32.5-.4,100.5-1c3.3,0,2.7-3.4,2.8-4.1h0l90.7-1s18.6-11.7,26-16.6c1.5-1,1.5-3.2,0-4.1-7.3-4.6-25.3-15.4-25.3-15.4h0l-.5.1Z"/>
        <path class="cls-1" d="M31.5,110.4h2.5v14.5h-2.5c-8.6,0-10.6,6.3-10.6,14.1v64.3c0,7.8,2,14.1,10.6,14.1h3.6v14.5h-3.6c-17.3,0-31.5-12.8-31.5-28.6v-64.3c0-15.8,14.1-28.6,31.5-28.6h0Z"/>
        <path class="cls-1" d="M156,80.8c13.9.2,39.9-6.5,33.8-24-2.3-5.5-6.8-8.7-11.4-11.6-7.4-5-24.6-10.6-17.8-20.7,1.9-3.2,5.1-6.2,8.2-9.2l-.2-.4c-6.9,1.6-14.7,5.1-17.7,12.1-3.5,7.9,3.3,16.8,9.1,21.1,6,5,13.7,7.7,18,13.3,3.2,4.8-17.9,16-22,19.5h0v-.1Z"/>
        <path class="cls-1" d="M98.8,80.8c13.9.2,39.9-6.5,33.8-24-2.3-5.5-6.8-8.7-11.4-11.6-7.4-5-24.6-10.6-17.8-20.7,1.9-3.2,5.1-6.2,8.2-9.2l-.2-.4c-6.9,1.6-14.7,5.1-17.7,12.1-3.5,7.9,3.3,16.8,9.1,21.1,6,5,13.7,7.7,18,13.3,3.2,4.8-17.9,16-22,19.5h0v-.1Z"/>
        <path class="cls-1" d="M213.2,80.8c13.9.2,39.9-6.5,33.8-24-2.3-5.5-6.8-8.7-11.4-11.6-7.4-5-24.6-10.6-17.8-20.7,1.9-3.2,5.1-6.2,8.2-9.2l-.2-.4c-6.9,1.6-14.7,5.1-17.7,12.1-3.5,7.9,3.3,16.8,9.1,21.1,6,5,13.7,7.7,18,13.3,3.2,4.8-17.9,16-22,19.5h0v-.1Z"/>
      </g>
      <path class="cls-1" d="M288.2,147.9h-.2c-.6.1-1.2.2-1.8.2h-4.2l-79.7.4h0c-.8,0-1.6-.1-2.4-.3,0,7.7-40.2,4.5-40.2,4.5-.6,3.7-1.3,12.5-12.6,12.8l-81,.4h-.4c-7.9,0-14.2-1.1-18.6-3.2h0c-1.2-.6-2.3-1.3-3.3-2.1v70.2c0,42.2,33.8,76.4,75.4,76.4h118.6c41.7,0,75.4-34.2,75.4-76.4v-100.4c-13.3,8.9-24.3,17.4-25,17.5h0ZM207,202.9c-27.7.6-51.1,16.4-74.3,23.9-7.3,2.4-14.7,3.9-22.1,3.9-8.2,0-16.4-1.4-23.6-3.9-10.1-3.6-18.4-9.4-22.1-16.5v-28.1h1.3l81-.4c8.5,0,21.7-5.3,21.9-12.8,0,0,32.8,1.9,35.8-4.2l87.1-.3v57.1c-27.8-15.1-70.1-18.9-84.9-18.6l-.1-.1Z"/>
    </g>
  </g>
</svg>