<?xml version="1.0" encoding="UTF-8"?>
<svg id="Layer_2" xmlns="http://www.w3.org/2000/svg" version="1.1" viewBox="0 0 284.8 66.4">
  <!-- Generator: Adobe Illustrator 29.0.0, SVG Export Plug-In . SVG Version: 2.1.0 Build 186)  -->
  <defs>
    <style>
      .st0 {
        fill: #d9e1e5;
      }

      .st1 {
        isolation: isolate;
      }
    </style>
  </defs>
  <g class="st1">
    <path class="st0" d="M76.8,14.3c2.1,0,4,.3,5.7,1,1.7.6,3.1,1.6,4.3,2.8s2.1,2.6,2.7,4.3c.6,1.7.9,3.5.9,5.5s-.3,3.6-.9,5.2c-.6,1.6-1.5,3-2.7,4.2-1.2,1.2-2.6,2.1-4.2,2.8-1.6.7-3.5,1-5.6,1s-4-.3-5.7-1-3.1-1.6-4.3-2.8c-1.2-1.2-2.1-2.6-2.7-4.3-.6-1.7-.9-3.5-.9-5.5s.3-3.6.9-5.2c.6-1.6,1.5-3,2.7-4.2,1.2-1.2,2.6-2.1,4.2-2.8s3.5-1,5.6-1ZM81.8,32.8c0-1.6-.1-3.2-.4-4.7-.3-1.5-.6-3-1.1-4.3-.4-1.4-1-2.5-1.5-3.6-.6-1-1.2-1.8-1.8-2.4-.6-.6-1.2-.9-1.9-.9s-1.2.2-1.6.7c-.4.4-.8,1.1-1,1.9s-.3,1.9-.3,3.1.1,3.2.4,4.7.6,3,1.1,4.4c.4,1.4,1,2.5,1.5,3.6.6,1,1.2,1.8,1.8,2.4.6.6,1.2.9,1.9.9s1.2-.2,1.6-.7c.4-.4.8-1.1,1-1.9.2-.9.3-1.9.3-3.1ZM77.2,34.3c-.1-.5-.1-.9,0-1.2,0-.4.3-.6.8-.7.5-.1.8,0,1.1.2.3.2.5.6.6,1,.5,1.4.9,2.6,1.5,3.6.5.9,1.1,1.7,1.7,2.2.6.5,1.3.9,2,1.1.7.2,1.6.3,2.5.3s1.2,0,1.5-.2c.3-.2.6-.3.9-.5.2-.2.5-.2.8-.2s.4,0,.5.2c.1.1.2.3.2.6s0,.4,0,.6c0,.2-.2.5-.3.7l-.9,2.2c-.2.5-.5.8-.9,1-.4.2-1,.3-1.9.3s-2.1-.2-3-.6c-1-.4-1.9-1.1-2.7-2-.9-.9-1.6-2.1-2.3-3.5s-1.3-3.1-1.9-5.2Z"/>
    <path class="st0" d="M113.2,29.1l-.7-9c0-.7-.2-1.2-.4-1.6-.2-.4-.6-.6-1.1-.8h-.5c-.5-.3-.8-.5-1-.7-.2-.2-.3-.5-.3-.9s.1-.7.4-.9c.3-.2.6-.3,1.1-.3h6.7c.5,0,.8.1,1.1.3.3.2.4.5.4.9s-.1.7-.3.9c-.2.2-.5.4-1,.5l-.5.2c-.7.2-1.1.5-1.3.9-.2.4-.3.9-.2,1.6l.7,8.7c0,.6.1,1.3.1,1.9s0,1.3,0,1.9c0,1.6-.4,3-1.1,4.2-.8,1.2-1.9,2.2-3.5,2.9-1.6.7-3.5,1.1-6,1.1s-4.5-.3-6.1-1c-1.6-.7-2.8-1.6-3.6-2.8-.8-1.2-1.2-2.7-1.2-4.4s0-.5,0-.8c0-.3,0-.7,0-1.3,0-.5,0-1.3.1-2.1l.6-9.6c0-.3,0-.6-.2-.8-.1-.2-.4-.3-.9-.4l-.7-.2c-.9-.2-1.3-.7-1.3-1.4s.1-.7.4-.9c.3-.2.6-.3,1.1-.3h11.5c.5,0,.8.1,1.1.3s.4.5.4.9-.1.7-.3.9c-.2.2-.5.4-1,.5l-.7.2c-.3,0-.5.2-.7.4-.1.2-.2.5-.2.8l-.6,9.7c0,.7,0,1.4,0,2,0,.6,0,1.1,0,1.6,0,2,.4,3.5,1.2,4.4s1.9,1.3,3.3,1.3,2.1-.2,2.9-.7c.8-.4,1.5-1.1,1.9-1.9.4-.8.7-1.8.7-2.9s0-1.6,0-2.1c0-.5,0-1,0-1.5Z"/>
    <path class="st0" d="M131.8,36.3c0,.3,0,.5.2.7.2.2.4.3.7.5l.7.3c.6.2.9.7.9,1.3s-.1.7-.4.9c-.3.2-.6.3-1.2.3h-10.4c-.5,0-.9-.1-1.2-.3-.3-.2-.4-.5-.4-.9,0-.7.3-1.1.9-1.3l.7-.3c.3-.1.5-.3.7-.5.2-.2.2-.4.2-.7v-17.3c0-.3,0-.5-.2-.7-.2-.2-.4-.3-.7-.5l-.7-.3c-.6-.2-.9-.7-.9-1.3s.1-.7.4-.9c.3-.2.6-.3,1.2-.3h10.4c.5,0,.9.1,1.2.3.3.2.4.5.4.9,0,.7-.3,1.1-.9,1.3l-.7.3c-.3.1-.5.3-.7.5-.2.2-.2.4-.2.7v17.3Z"/>
    <path class="st0" d="M137.6,16.3c0-.4.1-.7.4-.9.3-.2.6-.3,1.2-.3h13.6c.6,0,1,0,1.4-.2.4-.1.7-.2,1-.3.3-.1.7-.2,1.1-.2s1,.2,1.2.5c.3.3.5.8.7,1.5l1.5,5.1c.1.4.1.8,0,1.1-.1.3-.4.5-.8.6-.4.2-.8.2-1.2,0s-.6-.4-.8-.9c-.5-1-1-1.7-1.5-2.3-.5-.6-.9-1.1-1.4-1.4s-1-.6-1.5-.7c-.5-.1-1.1-.2-1.7-.2h-2.4v17.9c0,.7.2,1.3.6,1.7.4.4.9.6,1.6.6h.9c.9,0,1.7-.1,2.4-.4.7-.3,1.4-.8,2-1.6s1.3-1.9,2-3.4c.2-.4.4-.6.7-.8.3-.1.7-.2,1,0,.4,0,.7.3.9.6.2.3.2.7,0,1.1l-1.7,5.8c-.2.7-.4,1.2-.7,1.5s-.7.5-1.3.5-.7,0-1-.2c-.3-.1-.6-.2-1-.3-.4-.1-.8-.2-1.4-.2h-14.4c-.5,0-.9-.1-1.2-.3-.3-.2-.4-.5-.4-.9,0-.7.3-1.1.9-1.3l.7-.3c.3-.1.5-.3.7-.5.2-.2.2-.4.2-.7v-17.3c0-.3,0-.5-.2-.7-.2-.2-.4-.3-.7-.5l-.7-.3c-.6-.2-.9-.7-.9-1.3ZM145.3,26.2h4.8c.7,0,1.3-.1,1.6-.4.3-.3.6-.9.9-1.7.1-.4.3-.7.5-.9.2-.2.5-.3.8-.3.6,0,1,.4,1.2,1.1l1.4,5.7c.1.4.1.8,0,1.1-.1.3-.3.4-.7.6-.3.1-.7.1-.9,0-.3,0-.5-.3-.8-.6-.4-.6-.7-1-1.1-1.3-.3-.3-.7-.5-1.1-.6-.4-.1-.9-.2-1.5-.2h-5.1v-2.5Z"/>
    <path class="st0" d="M168.4,15h12.1c.6,0,1,0,1.4-.1.4,0,.7-.2,1.1-.3s.6-.1.9-.1c.6,0,1,.1,1.3.4.3.3.5.8.7,1.4l1.2,6c0,.5,0,.9-.1,1.2-.2.3-.5.5-.9.6-.4,0-.7,0-1,0-.3-.1-.5-.4-.8-.8-.7-1.4-1.3-2.5-1.8-3.3-.5-.8-1-1.3-1.4-1.7-.4-.3-.9-.5-1.5-.5h-.9v18.6c0,.3,0,.5.2.7.2.2.4.3.7.5l.7.3c.6.2.9.7.9,1.3s-.5,1.2-1.6,1.2h-10.4c-.5,0-.9-.1-1.2-.3-.3-.2-.4-.5-.4-.9,0-.7.3-1.1.9-1.3l.7-.3c.3-.1.5-.3.7-.5.2-.2.2-.4.2-.7v-18.6h-.9c-.5,0-1,.2-1.5.5s-.9.9-1.4,1.7c-.5.8-1.1,1.9-1.8,3.3-.2.4-.5.7-.8.8-.3.1-.6.2-1,0-.4,0-.7-.3-.9-.6-.2-.3-.2-.7-.1-1.2l1.2-6c.2-.7.4-1.2.7-1.4s.7-.4,1.3-.4.6,0,.9.1.7.2,1.1.3c.4,0,.9.1,1.4.1Z"/>
    <path class="st0" d="M220.4,33.1c0,1-.3,1.9-.8,2.8s-1.2,1.8-2.2,2.6-2.1,1.4-3.4,1.9-2.8.7-4.5.7c-2.7,0-5-.6-7-1.7s-3.5-2.7-4.6-4.7c-1.1-2-1.6-4.3-1.6-6.9s.3-3.7,1-5.4c.6-1.6,1.5-3.1,2.7-4.3,1.2-1.2,2.5-2.2,4-2.8,1.5-.7,3.2-1,5-1s2,0,2.7.3c.7.2,1.2.4,1.7.6s.8.3,1.1.3.6,0,.9-.3c.2-.2.5-.4.7-.6.2-.2.5-.3.9-.3s.6,0,.8.3c.2.2.4.5.5,1l1.9,6.4c.1.4,0,.7-.1,1-.2.3-.5.5-.9.6-.4,0-.8,0-1.1,0s-.6-.4-.8-.9c-.6-1.4-1.3-2.6-2-3.4s-1.5-1.4-2.3-1.7c-.8-.3-1.6-.5-2.5-.5s-1.7.2-2.4.6c-.7.4-1.3,1-1.8,1.8-.5.8-.9,1.8-1.1,2.9-.3,1.1-.4,2.4-.4,3.8,0,2.3.3,4.2.9,5.8.6,1.5,1.5,2.7,2.6,3.5s2.4,1.1,3.8,1.1,2.4-.3,3.5-1,1.9-1.6,2.6-2.8c.2-.4.4-.6.7-.8.2-.1.5-.2.8,0,.3,0,.5.2.6.4.1.2.2.4.2.7Z"/>
    <path class="st0" d="M243.2,29.1l-.7-9c0-.7-.2-1.2-.4-1.6-.2-.4-.6-.6-1.1-.8h-.5c-.5-.3-.8-.5-1-.7-.2-.2-.3-.5-.3-.9s.1-.7.4-.9.6-.3,1.1-.3h6.7c.5,0,.8.1,1.1.3s.4.5.4.9-.1.7-.3.9-.5.4-1,.5l-.5.2c-.7.2-1.1.5-1.3.9-.2.4-.3.9-.2,1.6l.7,8.7c0,.6.1,1.3.1,1.9s0,1.3,0,1.9c0,1.6-.4,3-1.1,4.2-.8,1.2-1.9,2.2-3.5,2.9-1.6.7-3.6,1.1-6,1.1s-4.5-.3-6.1-1-2.8-1.6-3.6-2.8-1.2-2.7-1.2-4.4,0-.5,0-.8c0-.3,0-.7,0-1.3,0-.5,0-1.3.1-2.1l.6-9.6c0-.3,0-.6-.2-.8-.1-.2-.4-.3-.9-.4l-.7-.2c-.9-.2-1.3-.7-1.3-1.4s.1-.7.4-.9.6-.3,1.1-.3h11.5c.5,0,.8.1,1.1.3.3.2.4.5.4.9s-.1.7-.3.9c-.2.2-.5.4-1,.5l-.7.2c-.3,0-.5.2-.7.4-.1.2-.2.5-.2.8l-.6,9.7c0,.7,0,1.4,0,2,0,.6,0,1.1,0,1.6,0,2,.4,3.5,1.2,4.4.8.9,1.9,1.3,3.3,1.3s2.1-.2,2.9-.7c.8-.4,1.5-1.1,1.9-1.9.4-.8.7-1.8.7-2.9s0-1.6,0-2.1c0-.5,0-1,0-1.5Z"/>
    <path class="st0" d="M276,24.5c0,1.6-.4,3-1.3,4.1-.8,1.2-2.1,2.1-3.6,2.7-1.6.6-3.5,1-5.7,1s-2.7-.2-3.8-.5c-1.1-.3-2.1-.7-3-1.3l.3-2.2c.5.3.9.6,1.3.8.4.2.9.4,1.3.5.5,0,1,.1,1.5.1.9,0,1.7-.2,2.4-.6s1.3-1,1.8-1.8c.4-.8.7-1.8.7-3s-.2-2.6-.7-3.6-1.2-1.8-2-2.3-1.8-.8-2.9-.8h-.4v18.7c0,.3,0,.6.2.8s.4.4.7.4l1.1.2c.4,0,.7.2.8.4s.3.5.3.9-.1.7-.4.9c-.3.2-.6.3-1.2.3h-10.9c-.5,0-.9-.1-1.2-.3-.3-.2-.4-.5-.4-.9,0-.7.3-1.1.9-1.3l.7-.3c.3-.1.5-.3.7-.5.2-.2.2-.4.2-.7v-17.3c0-.3,0-.5-.2-.7-.2-.2-.4-.3-.7-.5l-.7-.3c-.6-.2-.9-.7-.9-1.3s.1-.7.4-.9c.3-.2.6-.3,1.2-.3h10.1c2.9,0,5.3.4,7.4,1.2,2,.8,3.5,1.9,4.6,3.4,1,1.4,1.6,3.1,1.6,4.9Z"/>
  </g>
  <g class="st1">
    <path class="st0" d="M62.7,53.3c0-.5,0-1,.3-1.5.2-.5.5-1,.8-1.4s.8-.7,1.3-1,1.1-.4,1.7-.4,1.4.2,2,.5c.6.3,1,.8,1.2,1.3l-1.1.7c-.2-.3-.4-.6-.6-.8-.2-.2-.5-.3-.8-.4-.3,0-.6-.1-.8-.1-.4,0-.8,0-1.2.3s-.6.4-.8.7c-.2.3-.4.6-.5,1-.1.4-.2.7-.2,1.1s0,.8.2,1.2c.1.4.3.7.6,1,.2.3.5.5.9.7s.7.3,1.1.3.6,0,.9-.1.6-.2.8-.5c.3-.2.5-.5.6-.8l1.1.6c-.2.4-.4.8-.8,1.1-.4.3-.8.5-1.3.7-.5.2-.9.2-1.4.2s-1.1-.1-1.6-.4c-.5-.3-.9-.6-1.3-1-.4-.4-.6-.9-.9-1.4s-.3-1.1-.3-1.6Z"/>
  </g>
  <g class="st1">
    <path class="st0" d="M76.8,57.7c-.6,0-1.2-.1-1.7-.4-.5-.2-.9-.6-1.3-1-.4-.4-.6-.9-.8-1.4-.2-.5-.3-1.1-.3-1.6s.1-1.1.3-1.6c.2-.5.5-1,.9-1.4.4-.4.8-.7,1.3-1s1-.4,1.6-.4,1.2.1,1.7.4.9.6,1.3,1,.6.9.8,1.4c.2.5.3,1,.3,1.6s-.1,1.1-.3,1.6c-.2.5-.5,1-.9,1.4-.4.4-.8.7-1.3,1-.5.2-1,.3-1.6.3ZM74.1,53.4c0,.4,0,.8.2,1.2.1.4.3.7.5,1,.2.3.5.5.9.7s.7.3,1.1.3.8,0,1.2-.3c.3-.2.6-.4.9-.7.2-.3.4-.6.5-1,.1-.4.2-.7.2-1.1s0-.8-.2-1.2c-.1-.4-.3-.7-.6-1-.2-.3-.5-.5-.9-.7-.3-.2-.7-.3-1.1-.3s-.8,0-1.2.3-.6.4-.9.7c-.2.3-.4.6-.5,1-.1.4-.2.7-.2,1.1Z"/>
    <path class="st0" d="M84.1,57.6v-8.6h5.7v1.2h-4.3v2.6h3.6v1.1h-3.6v3.7h-1.4Z"/>
    <path class="st0" d="M92.9,57.6v-8.6h5.7v1.2h-4.3v2.6h3.6v1.1h-3.6v3.7h-1.4Z"/>
    <path class="st0" d="M107.6,56.4v1.2h-5.9v-8.6h5.8v1.2h-4.4v2.4h3.8v1.1h-3.8v2.6h4.5Z"/>
    <path class="st0" d="M116.7,56.4v1.2h-5.9v-8.6h5.8v1.2h-4.4v2.4h3.8v1.1h-3.8v2.6h4.5Z"/>
    <path class="st0" d="M129.7,51.1c0,0-.2-.2-.3-.3s-.3-.2-.5-.3c-.2,0-.4-.2-.7-.2-.2,0-.5,0-.8,0-.6,0-1,.1-1.3.3-.3.2-.4.5-.4.9s0,.5.2.6c.2.2.4.3.7.4.3.1.7.2,1.2.3.6.1,1.1.3,1.5.5.4.2.7.4,1,.8.2.3.3.7.3,1.2s0,.8-.2,1.1-.4.6-.7.8c-.3.2-.6.3-1,.4-.4,0-.8.1-1.2.1s-.8,0-1.3-.1c-.4,0-.8-.2-1.2-.4-.4-.2-.7-.4-1.1-.6l.6-1.2c0,.1.2.2.4.3.2.1.4.2.7.4.3.1.5.2.9.3.3,0,.6.1.9.1.5,0,1,0,1.2-.3.3-.2.4-.5.4-.8s0-.5-.3-.7c-.2-.2-.5-.3-.8-.4s-.8-.2-1.3-.4c-.6-.1-1-.3-1.4-.5-.4-.2-.7-.4-.8-.7-.2-.3-.3-.6-.3-1.1s.1-1,.4-1.4c.3-.4.6-.7,1.1-.9.5-.2,1-.3,1.6-.3s.8,0,1.1.1c.3,0,.7.2,1,.3s.6.3.8.5l-.6,1.1Z"/>
    <path class="st0" d="M140.8,49.1v8.6h-1.4v-3.8h-4.3v3.8h-1.4v-8.6h1.4v3.6h4.3v-3.6h1.4Z"/>
    <path class="st0" d="M148.1,57.7c-.6,0-1.2-.1-1.7-.4-.5-.2-.9-.6-1.3-1-.4-.4-.6-.9-.8-1.4-.2-.5-.3-1.1-.3-1.6s.1-1.1.3-1.6c.2-.5.5-1,.9-1.4.4-.4.8-.7,1.3-1s1-.4,1.6-.4,1.2.1,1.7.4.9.6,1.3,1c.4.4.6.9.8,1.4.2.5.3,1,.3,1.6s-.1,1.1-.3,1.6c-.2.5-.5,1-.9,1.4-.4.4-.8.7-1.3,1s-1,.3-1.6.3ZM145.4,53.4c0,.4,0,.8.2,1.2.1.4.3.7.5,1,.2.3.5.5.9.7.3.2.7.3,1.1.3s.8,0,1.2-.3c.3-.2.6-.4.9-.7s.4-.6.5-1c.1-.4.2-.7.2-1.1s0-.8-.2-1.2c-.1-.4-.3-.7-.6-1-.2-.3-.5-.5-.9-.7-.3-.2-.7-.3-1.1-.3s-.8,0-1.2.3c-.3.2-.6.4-.9.7-.2.3-.4.6-.5,1-.1.4-.2.7-.2,1.1Z"/>
  </g>
  <g class="st1">
    <path class="st0" d="M155.8,57.6v-8.6h3.6c.4,0,.7,0,1.1.2.3.2.6.4.8.6.2.3.4.6.6.9.1.3.2.7.2,1s-.1.9-.3,1.3-.5.8-.9,1-.8.4-1.4.4h-2.3v3h-1.4ZM157.2,53.5h2.2c.2,0,.5,0,.7-.2.2-.1.3-.3.5-.6s.2-.5.2-.8,0-.6-.2-.8c-.1-.2-.3-.4-.5-.6s-.4-.2-.7-.2h-2.2v3.2Z"/>
  </g>
  <g class="st1">
    <path class="st0" d="M175.2,57.6l-4.1-4.4c-.4-.4-.6-.7-.8-.9s-.3-.5-.4-.7c0-.2-.1-.4-.1-.7,0-.4,0-.7.3-1,.2-.3.5-.5.8-.7.3-.2.7-.2,1.2-.2s.7,0,1.1.2.6.3.8.6c.2.3.3.6.3,1s0,.7-.3,1c-.2.3-.5.6-.8.8s-.7.5-1.1.7c-.3.2-.6.4-.8.6s-.4.4-.6.6c-.1.2-.2.5-.2.7s0,.5.2.7.4.4.6.5.5.2.8.2.7,0,1.1-.3c.3-.2.6-.4.9-.8.3-.3.5-.7.6-1.1.1-.4.2-.9.2-1.4h1.1c0,.7-.1,1.3-.3,1.9-.2.6-.5,1.1-.9,1.5-.4.4-.8.7-1.3.9-.5.2-1,.3-1.5.3s-1-.1-1.5-.3c-.4-.2-.8-.5-1-.9-.2-.4-.4-.8-.4-1.2s.1-.8.3-1.2c.2-.3.5-.6.8-.9.3-.3.7-.5,1-.7.3-.2.6-.4.9-.6.3-.2.5-.3.6-.5.1-.2.2-.4.2-.6s0-.4-.3-.6c-.2-.2-.4-.2-.7-.2s-.4,0-.5.1c-.2,0-.3.2-.4.3,0,.1-.1.3-.1.5s0,.3,0,.4c0,.1.2.3.4.5s.4.5.7.8l4.8,5.1h-1.7Z"/>
  </g>
  <g class="st1">
    <path class="st0" d="M187,49.1h1.3l1.1,2.9,1.1-2.9h1.3l-1.5,3.8,1.3,3.2,2.7-7h1.5l-3.5,8.6h-1.2l-1.6-3.8-1.6,3.8h-1.2l-3.5-8.6h1.5l2.7,7,1.3-3.2-1.5-3.8Z"/>
  </g>
  <g class="st1">
    <path class="st0" d="M201.6,57.7c-.6,0-1.2-.1-1.7-.4-.5-.2-.9-.6-1.3-1-.4-.4-.6-.9-.8-1.4-.2-.5-.3-1.1-.3-1.6s.1-1.1.3-1.6c.2-.5.5-1,.9-1.4.4-.4.8-.7,1.3-1s1-.4,1.6-.4,1.2.1,1.7.4.9.6,1.3,1c.4.4.6.9.8,1.4.2.5.3,1,.3,1.6s-.1,1.1-.3,1.6c-.2.5-.5,1-.9,1.4-.4.4-.8.7-1.3,1s-1,.3-1.6.3ZM198.9,53.4c0,.4,0,.8.2,1.2.1.4.3.7.5,1,.2.3.5.5.9.7.3.2.7.3,1.1.3s.8,0,1.2-.3c.3-.2.6-.4.9-.7.2-.3.4-.6.5-1,.1-.4.2-.7.2-1.1s0-.8-.2-1.2c-.1-.4-.3-.7-.6-1-.2-.3-.5-.5-.9-.7-.3-.2-.7-.3-1.1-.3s-.8,0-1.2.3c-.3.2-.6.4-.8.7-.2.3-.4.6-.5,1-.1.4-.2.7-.2,1.1Z"/>
    <path class="st0" d="M209,57.6v-8.6h3.7c.4,0,.7,0,1.1.2.3.2.6.4.8.6.2.3.4.6.6.9.1.3.2.7.2,1s0,.7-.2,1.1c-.1.3-.3.6-.6.9-.3.2-.5.4-.9.5l2,3.3h-1.5l-1.9-3h-2v3h-1.4ZM210.3,53.5h2.4c.2,0,.5,0,.7-.2.2-.1.3-.3.5-.6s.2-.5.2-.8,0-.6-.2-.8c-.1-.2-.3-.4-.5-.6s-.4-.2-.7-.2h-2.3v3.2Z"/>
  </g>
  <g class="st1">
    <path class="st0" d="M218.6,57.6v-8.6h1.4v4.4l4-4.4h1.5l-3.4,3.8,3.6,4.8h-1.5l-2.9-3.9-1.3,1.3v2.6h-1.4Z"/>
  </g>
  <g class="st1">
    <path class="st0" d="M237.9,51.1c0,0-.2-.2-.3-.3-.2-.1-.3-.2-.5-.3-.2,0-.4-.2-.7-.2-.2,0-.5,0-.8,0-.6,0-1,.1-1.3.3s-.4.5-.4.9,0,.5.2.6c.2.2.4.3.7.4.3.1.7.2,1.2.3.6.1,1.1.3,1.5.5.4.2.7.4,1,.8.2.3.3.7.3,1.2s0,.8-.2,1.1-.4.6-.7.8c-.3.2-.6.3-1,.4-.4,0-.8.1-1.2.1s-.9,0-1.3-.1c-.4,0-.8-.2-1.2-.4-.4-.2-.7-.4-1.1-.6l.6-1.2c0,.1.2.2.4.3.2.1.4.2.7.4.3.1.5.2.9.3.3,0,.6.1.9.1.5,0,1,0,1.2-.3.3-.2.4-.5.4-.8s0-.5-.3-.7c-.2-.2-.5-.3-.8-.4-.3-.1-.8-.2-1.3-.4-.6-.1-1-.3-1.4-.5-.4-.2-.7-.4-.8-.7-.2-.3-.3-.6-.3-1.1s.1-1,.4-1.4c.3-.4.6-.7,1.1-.9.5-.2,1-.3,1.6-.3s.8,0,1.1.1c.3,0,.7.2,1,.3s.6.3.8.5l-.6,1.1Z"/>
  </g>
  <g class="st1">
    <path class="st0" d="M242,57.6v-8.6h3.6c.4,0,.7,0,1.1.2.3.2.6.4.8.6.2.3.4.6.6.9.1.3.2.7.2,1s-.1.9-.3,1.3-.5.8-.9,1-.8.4-1.4.4h-2.3v3h-1.4ZM243.4,53.5h2.2c.2,0,.5,0,.7-.2.2-.1.3-.3.5-.6s.2-.5.2-.8,0-.6-.2-.8c-.1-.2-.3-.4-.5-.6-.2-.1-.4-.2-.7-.2h-2.2v3.2Z"/>
  </g>
  <g class="st1">
    <path class="st0" d="M253.2,49.1h1.3l3.3,8.6h-1.4l-.8-2.3h-3.4l-.8,2.3h-1.4l3.3-8.6ZM255.2,54.3l-1.3-3.7-1.4,3.7h2.7Z"/>
  </g>
  <g class="st1">
    <path class="st0" d="M259.9,53.3c0-.5,0-1,.3-1.5.2-.5.5-1,.8-1.4s.8-.7,1.3-1,1.1-.4,1.7-.4,1.4.2,2,.5c.6.3,1,.8,1.2,1.3l-1.1.7c-.2-.3-.4-.6-.6-.8-.2-.2-.5-.3-.8-.4-.3,0-.6-.1-.8-.1-.4,0-.8,0-1.2.3s-.6.4-.8.7c-.2.3-.4.6-.5,1-.1.4-.2.7-.2,1.1s0,.8.2,1.2c.1.4.3.7.6,1,.2.3.5.5.9.7.3.2.7.3,1.1.3s.6,0,.9-.1.6-.2.8-.5c.3-.2.5-.5.6-.8l1.1.6c-.2.4-.4.8-.8,1.1-.4.3-.8.5-1.3.7-.5.2-.9.2-1.4.2s-1.1-.1-1.6-.4c-.5-.3-.9-.6-1.3-1-.4-.4-.6-.9-.8-1.4-.2-.5-.3-1.1-.3-1.6Z"/>
    <path class="st0" d="M276.3,56.4v1.2h-5.9v-8.6h5.8v1.2h-4.4v2.4h3.8v1.1h-3.8v2.6h4.5Z"/>
  </g>
  <g id="Layer_1-2">
    <g>
      <g>
        <path class="st0" d="M49.2,10.3h0s0,0,0,0Z"/>
        <path class="st0" d="M50.6,26.4h-14.8c0,.1,0-.7-.4-.7h0c-7.9,0-15.8,0-23.7,0-.5,0-1,.5-1,1v5.5c0,.6.4,1,1,1h0s0,.1,0,.2c0,.6.5,2.1,2.9,2.1h12.7c.3-.1.5-.5.5-.9h0s0-.6-.5-.6h-12.6c-.1.1-1-.2-1-.9h5.3c0,0,16.4-.2,16.4-.2.5,0,.4-.6.5-.7h0l14.8-.2s3-1.9,4.2-2.7c.2-.2.2-.5,0-.7-1.2-.7-4.1-2.5-4.1-2.5h0s0,0,0,0Z"/>
        <path class="st0" d="M9.1,28.3h.4v2.4h-.4c-1.4,0-1.7,1-1.7,2.3v10.5c0,1.3.3,2.3,1.7,2.3h.6v2.4h-.6c-2.8,0-5.1-2.1-5.1-4.7v-10.5c0-2.6,2.3-4.7,5.1-4.7h0Z"/>
        <path class="st0" d="M29.4,23.5c2.3,0,6.5-1.1,5.5-3.9-.4-.9-1.1-1.4-1.9-1.9-1.2-.8-4-1.7-2.9-3.4.3-.5.8-1,1.3-1.5h0c-1.1.2-2.4.8-2.9,1.9-.6,1.3.5,2.7,1.5,3.4,1,.8,2.2,1.3,2.9,2.2.5.8-2.9,2.6-3.6,3.2h0s0,0,0,0Z"/>
        <path class="st0" d="M20.1,23.5c2.3,0,6.5-1.1,5.5-3.9-.4-.9-1.1-1.4-1.9-1.9-1.2-.8-4-1.7-2.9-3.4.3-.5.8-1,1.3-1.5h0c-1.1.2-2.4.8-2.9,1.9-.6,1.3.5,2.7,1.5,3.4,1,.8,2.2,1.3,2.9,2.2.5.8-2.9,2.6-3.6,3.2h0s0,0,0,0Z"/>
        <path class="st0" d="M38.7,23.5c2.3,0,6.5-1.1,5.5-3.9-.4-.9-1.1-1.4-1.9-1.9-1.2-.8-4-1.7-2.9-3.4.3-.5.8-1,1.3-1.5h0c-1.1.2-2.4.8-2.9,1.9-.6,1.3.5,2.7,1.5,3.4,1,.8,2.2,1.3,2.9,2.2.5.8-2.9,2.6-3.6,3.2h0s0,0,0,0Z"/>
      </g>
      <path class="st0" d="M50.9,34.4h0c0,0-.2,0-.3,0h-13.7c-.1,0-.3,0-.4,0,0,1.3-6.5.7-6.5.7,0,.6-.2,2-2.1,2.1h-13.2c0,0,0,0,0,0-1.3,0-2.3-.2-3-.5h0c-.2,0-.4-.2-.5-.3v11.4c0,6.9,5.5,12.4,12.3,12.4h19.3c6.8,0,12.3-5.6,12.3-12.4v-16.3c-2.2,1.4-4,2.8-4.1,2.8h0ZM37.7,43.4c-4.5,0-8.3,2.7-12.1,3.9-1.2.4-2.4.6-3.6.6s-2.7-.2-3.8-.6c-1.6-.6-3-1.5-3.6-2.7v-4.6h13.4c1.4,0,3.5-.9,3.6-2.1,0,0,5.3.3,5.8-.7h14.2s0,9.2,0,9.2c-4.5-2.5-11.4-3.1-13.8-3h0s0,0,0,0Z"/>
    </g>
  </g>
</svg>