<?xml version="1.0" encoding="UTF-8"?>
<svg id="Layer_2" xmlns="http://www.w3.org/2000/svg" version="1.1" viewBox="0 0 284.8 66.4">
  <!-- Generator: Adobe Illustrator 29.0.0, SVG Export Plug-In . SVG Version: 2.1.0 Build 186)  -->
  <defs>
    <style>
      .st0 {
        stroke: #d9e1e5;
        stroke-linejoin: round;
      }

      .st0, .st1 {
        fill: #d9e1e5;
      }

      .st2 {
        isolation: isolate;
      }
    </style>
  </defs>
  <g class="st2">
    <path class="st1" d="M76.8,14.3c2.1,0,4,.3,5.7,1,1.7.6,3.1,1.6,4.3,2.8s2.1,2.6,2.7,4.3.9,3.5.9,5.5-.3,3.6-.9,5.2c-.6,1.6-1.5,3-2.7,4.2s-2.6,2.1-4.2,2.8-3.5,1-5.6,1-4-.3-5.7-1-3.1-1.6-4.3-2.8c-1.2-1.2-2.1-2.6-2.7-4.3s-.9-3.5-.9-5.5.3-3.6.9-5.2c.6-1.6,1.5-3,2.7-4.2s2.6-2.1,4.2-2.8,3.5-1,5.6-1ZM81.8,32.8c0-1.6,0-3.2-.4-4.7s-.6-3-1.1-4.3c-.4-1.4-1-2.5-1.5-3.6-.6-1-1.2-1.8-1.8-2.4-.6-.6-1.2-.9-1.9-.9s-1.2.2-1.6.7c-.4.4-.8,1.1-1,1.9s-.3,1.9-.3,3.1,0,3.2.4,4.7.6,3,1.1,4.4c.4,1.4,1,2.5,1.5,3.6.6,1,1.2,1.8,1.8,2.4.6.6,1.2.9,1.9.9s1.2-.2,1.6-.7c.4-.4.8-1.1,1-1.9.2-.9.3-1.9.3-3.1h0ZM77.2,34.3c0-.5,0-.9,0-1.2,0-.4.3-.6.8-.7.5,0,.8,0,1.1.2.3.2.5.6.6,1,.5,1.4.9,2.6,1.5,3.6.5.9,1.1,1.7,1.7,2.2s1.3.9,2,1.1c.7.2,1.6.3,2.5.3s1.2,0,1.5-.2.6-.3.9-.5c.2-.2.5-.2.8-.2s.4,0,.5.2c0,0,.2.3.2.6v.6c0,.2-.2.5-.3.7l-.9,2.2c-.2.5-.5.8-.9,1s-1,.3-1.9.3-2.1-.2-3-.6c-1-.4-1.9-1.1-2.7-2-.9-.9-1.6-2.1-2.3-3.5s-1.3-3.1-1.9-5.2h-.2Z"/>
    <path class="st1" d="M113.2,29.1l-.7-9c0-.7-.2-1.2-.4-1.6-.2-.4-.6-.6-1.1-.8h-.5c-.5-.3-.8-.5-1-.7s-.3-.5-.3-.9,0-.7.4-.9.6-.3,1.1-.3h6.7c.5,0,.8.1,1.1.3.3.2.4.5.4.9s0,.7-.3.9c-.2.2-.5.4-1,.5l-.5.2c-.7.2-1.1.5-1.3.9-.2.4-.3.9-.2,1.6l.7,8.7c0,.6,0,1.3,0,1.9v1.9c0,1.6-.4,3-1.1,4.2-.8,1.2-1.9,2.2-3.5,2.9s-3.5,1.1-6,1.1-4.5-.3-6.1-1-2.8-1.6-3.6-2.8c-.8-1.2-1.2-2.7-1.2-4.4s0-.5,0-.8v-1.3c0-.5,0-1.3,0-2.1l.6-9.6c0-.3,0-.6-.2-.8,0-.2-.4-.3-.9-.4l-.7-.2c-.9-.2-1.3-.7-1.3-1.4s0-.7.4-.9.6-.3,1.1-.3h11.5c.5,0,.8.1,1.1.3s.4.5.4.9,0,.7-.3.9c-.2.2-.5.4-1,.5l-.7.2c-.3,0-.5.2-.7.4,0,.2-.2.5-.2.8l-.6,9.7v3.6c0,2,.4,3.5,1.2,4.4s1.9,1.3,3.3,1.3,2.1-.2,2.9-.7c.8-.4,1.5-1.1,1.9-1.9.4-.8.7-1.8.7-2.9v-3.6l-.3.3Z"/>
    <path class="st1" d="M131.8,36.3c0,.3,0,.5.2.7s.4.3.7.5l.7.3c.6.2.9.7.9,1.3s-.1.7-.4.9c-.3.2-.6.3-1.2.3h-10.4c-.5,0-.9,0-1.2-.3-.3-.2-.4-.5-.4-.9,0-.7.3-1.1.9-1.3l.7-.3c.3,0,.5-.3.7-.5s.2-.4.2-.7v-17.3c0-.3,0-.5-.2-.7s-.4-.3-.7-.5l-.7-.3c-.6-.2-.9-.7-.9-1.3s0-.7.4-.9.6-.3,1.2-.3h10.4c.5,0,.9.1,1.2.3s.4.5.4.9c0,.7-.3,1.1-.9,1.3l-.7.3c-.3.1-.5.3-.7.5s-.2.4-.2.7v17.3Z"/>
    <path class="st1" d="M137.6,16.3c0-.4.1-.7.4-.9.3-.2.6-.3,1.2-.3h13.6c.6,0,1,0,1.4-.2.4-.1.7-.2,1-.3s.7-.2,1.1-.2,1,.2,1.2.5c.3.3.5.8.7,1.5l1.5,5.1c.1.4.1.8,0,1.1-.1.3-.4.5-.8.6-.4.2-.8.2-1.2,0s-.6-.4-.8-.9c-.5-1-1-1.7-1.5-2.3-.5-.6-.9-1.1-1.4-1.4s-1-.6-1.5-.7-1.1-.2-1.7-.2h-2.4v17.9c0,.7.2,1.3.6,1.7.4.4.9.6,1.6.6h.9c.9,0,1.7,0,2.4-.4.7-.3,1.4-.8,2-1.6s1.3-1.9,2-3.4c.2-.4.4-.6.7-.8.3-.1.7-.2,1,0,.4,0,.7.3.9.6s.2.7,0,1.1l-1.7,5.8c-.2.7-.4,1.2-.7,1.5s-.7.5-1.3.5-.7,0-1-.2c-.3,0-.6-.2-1-.3s-.8-.2-1.4-.2h-14.4c-.5,0-.9,0-1.2-.3s-.4-.5-.4-.9c0-.7.3-1.1.9-1.3l.7-.3c.3,0,.5-.3.7-.5s.2-.4.2-.7v-17.3c0-.3,0-.5-.2-.7s-.4-.3-.7-.5l-.7-.3c-.6-.2-.9-.7-.9-1.3h.2ZM145.3,26.2h4.8c.7,0,1.3-.1,1.6-.4s.6-.9.9-1.7c.1-.4.3-.7.5-.9.2-.2.5-.3.8-.3.6,0,1,.4,1.2,1.1l1.4,5.7c.1.4.1.8,0,1.1-.1.3-.3.4-.7.6-.3.1-.7.1-.9,0-.3,0-.5-.3-.8-.6-.4-.6-.7-1-1.1-1.3-.3-.3-.7-.5-1.1-.6-.4-.1-.9-.2-1.5-.2h-5.1v-2.5h0Z"/>
    <path class="st1" d="M168.4,15h12.1c.6,0,1,0,1.4-.1.4,0,.7-.2,1.1-.3s.6-.1.9-.1c.6,0,1,.1,1.3.4.3.3.5.8.7,1.4l1.2,6c0,.5,0,.9-.1,1.2-.2.3-.5.5-.9.6h-1c-.3-.1-.5-.4-.8-.8-.7-1.4-1.3-2.5-1.8-3.3s-1-1.3-1.4-1.7c-.4-.3-.9-.5-1.5-.5h-.9v18.6c0,.3,0,.5.2.7s.4.3.7.5l.7.3c.6.2.9.7.9,1.3s-.5,1.2-1.6,1.2h-10.4c-.5,0-.9,0-1.2-.3s-.4-.5-.4-.9c0-.7.3-1.1.9-1.3l.7-.3c.3,0,.5-.3.7-.5s.2-.4.2-.7v-18.6h-.9c-.5,0-1,.2-1.5.5s-.9.9-1.4,1.7c-.5.8-1.1,1.9-1.8,3.3-.2.4-.5.7-.8.8-.3.1-.6.2-1,0-.4,0-.7-.3-.9-.6-.2-.3-.2-.7-.1-1.2l1.2-6c.2-.7.4-1.2.7-1.4s.7-.4,1.3-.4.6,0,.9.1.7.2,1.1.3c.4,0,.9.1,1.4.1h.1Z"/>
    <path class="st1" d="M220.4,33.1c0,1-.3,1.9-.8,2.8s-1.2,1.8-2.2,2.6-2.1,1.4-3.4,1.9-2.8.7-4.5.7c-2.7,0-5-.6-7-1.7s-3.5-2.7-4.6-4.7-1.6-4.3-1.6-6.9.3-3.7,1-5.4c.6-1.6,1.5-3.1,2.7-4.3,1.2-1.2,2.5-2.2,4-2.8,1.5-.7,3.2-1,5-1s2,0,2.7.3c.7.2,1.2.4,1.7.6s.8.3,1.1.3.6,0,.9-.3c.2-.2.5-.4.7-.6.2-.2.5-.3.9-.3s.6,0,.8.3c.2.2.4.5.5,1l1.9,6.4c.1.4,0,.7-.1,1-.2.3-.5.5-.9.6h-1.1c-.3,0-.6-.4-.8-.9-.6-1.4-1.3-2.6-2-3.4s-1.5-1.4-2.3-1.7c-.8-.3-1.6-.5-2.5-.5s-1.7.2-2.4.6-1.3,1-1.8,1.8-.9,1.8-1.1,2.9c-.3,1.1-.4,2.4-.4,3.8,0,2.3.3,4.2.9,5.8.6,1.5,1.5,2.7,2.6,3.5s2.4,1.1,3.8,1.1,2.4-.3,3.5-1,1.9-1.6,2.6-2.8c.2-.4.4-.6.7-.8.2-.1.5-.2.8,0,.3,0,.5.2.6.4s.2.4.2.7h0Z"/>
    <path class="st1" d="M243.2,29.1l-.7-9c0-.7-.2-1.2-.4-1.6s-.6-.6-1.1-.8h-.5c-.5-.3-.8-.5-1-.7s-.3-.5-.3-.9.1-.7.4-.9.6-.3,1.1-.3h6.7c.5,0,.8.1,1.1.3s.4.5.4.9-.1.7-.3.9-.5.4-1,.5l-.5.2c-.7.2-1.1.5-1.3.9s-.3.9-.2,1.6l.7,8.7c0,.6.1,1.3.1,1.9v1.9c0,1.6-.4,3-1.1,4.2-.8,1.2-1.9,2.2-3.5,2.9s-3.6,1.1-6,1.1-4.5-.3-6.1-1-2.8-1.6-3.6-2.8-1.2-2.7-1.2-4.4,0-.5,0-.8v-1.3c0-.5,0-1.3.1-2.1l.6-9.6c0-.3,0-.6-.2-.8-.1-.2-.4-.3-.9-.4l-.7-.2c-.9-.2-1.3-.7-1.3-1.4s.1-.7.4-.9.6-.3,1.1-.3h11.5c.5,0,.8.1,1.1.3s.4.5.4.9-.1.7-.3.9c-.2.2-.5.4-1,.5l-.7.2c-.3,0-.5.2-.7.4-.1.2-.2.5-.2.8l-.6,9.7v3.6c0,2,.4,3.5,1.2,4.4s1.9,1.3,3.3,1.3,2.1-.2,2.9-.7c.8-.4,1.5-1.1,1.9-1.9.4-.8.7-1.8.7-2.9v-3.6l-.3.3Z"/>
    <path class="st1" d="M276,24.5c0,1.6-.4,3-1.3,4.1-.8,1.2-2.1,2.1-3.6,2.7-1.6.6-3.5,1-5.7,1s-2.7-.2-3.8-.5c-1.1-.3-2.1-.7-3-1.3l.3-2.2c.5.3.9.6,1.3.8.4.2.9.4,1.3.5.5,0,1,.1,1.5.1.9,0,1.7-.2,2.4-.6s1.3-1,1.8-1.8c.4-.8.7-1.8.7-3s-.2-2.6-.7-3.6-1.2-1.8-2-2.3-1.8-.8-2.9-.8h-.4v18.7c0,.3,0,.6.2.8s.4.4.7.4l1.1.2c.4,0,.7.2.8.4s.3.5.3.9-.1.7-.4.9-.6.3-1.2.3h-10.9c-.5,0-.9,0-1.2-.3s-.4-.5-.4-.9c0-.7.3-1.1.9-1.3l.7-.3c.3,0,.5-.3.7-.5s.2-.4.2-.7v-17.3c0-.3,0-.5-.2-.7s-.4-.3-.7-.5l-.7-.3c-.6-.2-.9-.7-.9-1.3s.1-.7.4-.9c.3-.2.6-.3,1.2-.3h10.1c2.9,0,5.3.4,7.4,1.2,2,.8,3.5,1.9,4.6,3.4,1,1.4,1.6,3.1,1.6,4.9h-.2Z"/>
  </g>
  <g class="st2">
    <path class="st0" d="M62.9,53.3c0-.5,0-1,.3-1.5.2-.5.4-1,.8-1.4.3-.4.8-.7,1.3-1,.5-.2,1.1-.4,1.7-.4s1.4.2,1.9.5.9.8,1.2,1.3h-.2c-.2-.3-.5-.7-.8-.9s-.7-.4-1-.5-.7-.2-1.1-.2c-.6,0-1.1,0-1.6.3s-.9.5-1.2.9-.6.8-.7,1.3c-.2.5-.2,1-.2,1.5s0,1.1.3,1.6c.2.5.5.9.8,1.3s.7.7,1.2.9,1,.3,1.5.3.8,0,1.2-.2c.4,0,.8-.3,1.1-.6.3-.3.6-.6.8-1h.2c-.2.5-.5.8-.8,1.1-.4.3-.8.5-1.2.7-.4.2-.9.2-1.3.2s-1.1,0-1.6-.4c-.5-.3-.9-.6-1.3-1s-.6-.9-.8-1.4-.3-1.1-.3-1.6l-.2.2Z"/>
  </g>
  <g class="st2">
    <path class="st0" d="M76.9,57.7c-.6,0-1.1,0-1.6-.4s-.9-.6-1.3-1-.6-.9-.8-1.4c-.2-.5-.3-1.1-.3-1.6s0-1.1.3-1.6c.2-.5.5-1,.8-1.4.4-.4.8-.7,1.3-1,.5-.2,1-.4,1.6-.4s1.1,0,1.6.4c.5.2.9.6,1.3,1s.6.9.8,1.4c.2.5.3,1,.3,1.6s0,1.1-.3,1.6c-.2.5-.5,1-.8,1.4-.4.4-.8.7-1.3,1-.5.2-1,.3-1.6.3h0ZM73.1,53.4c0,.5,0,1,.3,1.5.2.5.4.9.8,1.3s.7.7,1.2.9,1,.3,1.5.3,1.1,0,1.5-.3.9-.5,1.2-.9.6-.8.8-1.3c.2-.5.3-1,.3-1.5s0-1-.3-1.5c-.2-.5-.5-.9-.8-1.3s-.7-.7-1.2-.9-.9-.3-1.5-.3-1.1,0-1.5.3c-.5.2-.9.5-1.2.9-.3.4-.6.8-.8,1.3s-.3,1-.3,1.5Z"/>
    <path class="st0" d="M84.4,57.6v-8.6h5.5v.2h-5.3v3.8h4.5v.2h-4.5v4.3h-.2Z"/>
    <path class="st0" d="M93.5,57.6v-8.6h5.5v.2h-5.3v3.8h4.5v.2h-4.5v4.3h-.2Z"/>
    <path class="st0" d="M108.2,57.4v.2h-5.6v-8.6h5.5v.2h-5.3v3.8h4.6v.2h-4.6v4h5.4v.2Z"/>
    <path class="st0" d="M117.4,57.4v.2h-5.6v-8.6h5.5v.2h-5.3v3.8h4.6v.2h-4.6v4h5.4v.2Z"/>
    <path class="st0" d="M130.9,50.2c-.2-.2-.3-.3-.5-.5-.2,0-.4-.2-.5-.3s-.4,0-.6-.2h-.7c-1,0-1.7.2-2.1.6s-.7.9-.7,1.5,0,.7.3,1c.2.2.5.4.9.6.4,0,.9.3,1.5.4.6,0,1.2.3,1.7.4.5.2.8.4,1.1.7s.4.7.4,1.2,0,.7-.2.9c-.1.3-.3.5-.6.7s-.6.3-1,.4c-.4,0-.8,0-1.3,0s-.9,0-1.3,0c-.4,0-.8-.2-1.1-.4-.3-.2-.7-.4-1-.7l.2-.2c.2.2.4.4.7.6.2.2.5.3.7.4.3,0,.5.2.8.2h.9c.9,0,1.5-.2,2-.5s.7-.8.7-1.4-.1-.8-.3-1c-.2-.3-.5-.5-.9-.6s-1-.3-1.6-.4c-.6,0-1.2-.3-1.6-.4s-.8-.4-1-.6-.3-.6-.3-1.1,0-.9.4-1.3c.2-.3.6-.6,1-.8s1-.3,1.6-.3.7,0,1,0c.3,0,.6.2.8.3.3,0,.5.3.7.6l-.2.2h.1Z"/>
    <path class="st0" d="M141.5,49.1v8.6h-.2v-4.3h-5.9v4.3h-.2v-8.6h.2v4.1h5.9v-4.1h.2Z"/>
    <path class="st0" d="M149.1,57.7c-.6,0-1.1,0-1.6-.4s-.9-.6-1.3-1c-.4-.4-.6-.9-.8-1.4s-.3-1.1-.3-1.6.1-1.1.3-1.6.5-1,.8-1.4c.4-.4.8-.7,1.3-1s1-.4,1.6-.4,1.1,0,1.6.4.9.6,1.3,1,.6.9.8,1.4.3,1,.3,1.6-.1,1.1-.3,1.6-.5,1-.8,1.4c-.4.4-.8.7-1.3,1-.5.2-1,.3-1.6.3h0ZM145.3,53.4c0,.5,0,1,.3,1.5s.4.9.8,1.3c.3.4.7.7,1.2.9s1,.3,1.5.3,1.1,0,1.5-.3.9-.5,1.2-.9.6-.8.8-1.3.3-1,.3-1.5,0-1-.3-1.5-.5-.9-.8-1.3c-.3-.4-.7-.7-1.2-.9s-.9-.3-1.5-.3-1.1,0-1.5.3c-.5.2-.9.5-1.2.9s-.6.8-.8,1.3-.3,1-.3,1.5Z"/>
  </g>
  <g class="st2">
    <path class="st0" d="M156,57.6v-8.6h3.5c.4,0,.7,0,1,.2.3,0,.5.3.8.6s.4.5.5.8.2.6.2.9,0,.9-.3,1.3-.5.7-.8,1-.8.4-1.2.4h-3.3v3.4h-.4ZM156.3,54h3.3c.4,0,.8,0,1.1-.3s.6-.5.7-.9c.2-.4.2-.7.2-1.1s0-.8-.3-1.2c-.2-.4-.5-.6-.8-.9-.3-.2-.7-.3-1.1-.3h-3.2v4.7h.1Z"/>
  </g>
  <g class="st2">
    <path class="st0" d="M176,57.6l-4.4-4.7c-.4-.4-.6-.7-.8-.9-.2-.3-.4-.5-.5-.7,0-.2-.1-.4-.1-.6,0-.3,0-.6.3-.8s.4-.5.7-.6c.3-.2.6-.2,1-.2s.7,0,.9.2c.3,0,.5.3.6.6.2.2.2.5.2.8s-.1.6-.3.9c-.2.3-.5.5-.8.8-.3.2-.7.5-1.1.8-.4.2-.7.5-1,.7s-.6.5-.8.8-.3.6-.3,1,.1.8.4,1.1c.2.3.6.5.9.6.4,0,.7.2,1.1.2s.9,0,1.3-.3c.4-.2.7-.5,1-.9s.5-.8.7-1.3.2-.9.2-1.4h.2c0,.5,0,1-.2,1.5s-.4.9-.7,1.3c-.3.4-.7.7-1.1,1-.4.2-.9.4-1.5.4s-.9,0-1.3-.2c-.4-.2-.7-.4-1-.7s-.4-.7-.4-1.2,0-.8.3-1.1c.2-.3.5-.6.8-.9.3-.3.7-.5,1.1-.8.4-.3.8-.5,1.1-.8.3-.2.6-.5.7-.7.2-.2.3-.5.3-.8s-.1-.7-.4-.9c-.3-.2-.7-.4-1.1-.4s-.6,0-.9.2c-.3,0-.5.3-.6.5-.2.2-.2.5-.2.8s0,.3.1.5c0,.2.2.4.4.6.2.3.5.6.8,1l4.6,4.8h-.3v-.2Z"/>
  </g>
  <g class="st2">
    <path class="st0" d="M187.6,49.2h.3l1.4,3.2,1.4-3.2h.3l-1.5,3.5,2,4.7,3.6-8.3h.3l-3.7,8.6h-.3l-2-4.7-2,4.7h-.3l-3.7-8.6h.3l3.6,8.3,2-4.7-1.5-3.5h-.2Z"/>
  </g>
  <g class="st2">
    <path class="st0" d="M201.7,57.7c-.6,0-1.1,0-1.6-.4s-.9-.6-1.3-1c-.4-.4-.6-.9-.8-1.4s-.3-1.1-.3-1.6.1-1.1.3-1.6.5-1,.8-1.4c.4-.4.8-.7,1.3-1s1-.4,1.6-.4,1.1,0,1.6.4.9.6,1.3,1,.6.9.8,1.4.3,1,.3,1.6-.1,1.1-.3,1.6-.5,1-.8,1.4c-.4.4-.8.7-1.3,1-.5.2-1,.3-1.6.3h0ZM197.9,53.4c0,.5,0,1,.3,1.5s.4.9.8,1.3c.3.4.7.7,1.2.9s1,.3,1.5.3,1.1,0,1.5-.3.9-.5,1.2-.9.6-.8.8-1.3.3-1,.3-1.5,0-1-.3-1.5c-.2-.5-.5-.9-.8-1.3s-.7-.7-1.2-.9-.9-.3-1.5-.3-1.1,0-1.5.3c-.5.2-.9.5-1.2.9s-.6.8-.8,1.3-.3,1-.3,1.5Z"/>
    <path class="st0" d="M209.2,57.6v-8.6h3.5c.4,0,.7,0,1,.2.3,0,.5.3.8.6s.4.5.5.8.2.6.2.9,0,.9-.3,1.2c-.2.4-.4.7-.8.9s-.7.4-1.1.4l2.2,3.4h-.3l-2.2-3.4h-3.2v3.4h-.2v.2ZM209.5,54h3.3c.4,0,.8,0,1.1-.3s.5-.5.7-.9.3-.7.3-1.1,0-.8-.3-1.2c-.2-.4-.5-.6-.8-.9-.3-.2-.7-.3-1.1-.3h-3.2v4.7Z"/>
  </g>
  <g class="st2">
    <path class="st0" d="M218.9,57.6v-8.6h.2v5.6l5.4-5.6h.3l-3.7,3.7,3.8,4.8h-.3l-3.7-4.7-2,2v2.7h-.2.2Z"/>
  </g>
  <g class="st2">
    <path class="st0" d="M238.2,50.2c-.2-.2-.3-.3-.5-.5-.2,0-.4-.2-.5-.3-.2,0-.4,0-.6-.2h-.7c-1,0-1.7.2-2.1.6-.4.4-.7.9-.7,1.5s0,.7.3,1c.2.2.5.4.9.6.4,0,.9.3,1.5.4.6,0,1.2.3,1.7.4.5.2.8.4,1.1.7s.4.7.4,1.2,0,.7-.2.9c-.1.3-.3.5-.6.7s-.6.3-1,.4c-.4,0-.8,0-1.3,0s-.9,0-1.3,0c-.4,0-.8-.2-1.1-.4s-.7-.4-1-.7l.2-.2c.2.2.4.4.7.6.2.2.5.3.7.4.3,0,.5.2.8.2h.9c.9,0,1.5-.2,2-.5s.7-.8.7-1.4-.1-.8-.3-1c-.2-.3-.5-.5-.9-.6s-1-.3-1.6-.4c-.6,0-1.2-.3-1.6-.4s-.8-.4-1-.6c-.2-.3-.3-.6-.3-1.1s.1-.9.4-1.3c.2-.3.6-.6,1-.8s1-.3,1.6-.3.7,0,1,0c.3,0,.6.2.8.3s.5.3.7.6l-.2.2h.1Z"/>
  </g>
  <g class="st2">
    <path class="st0" d="M242.3,57.6v-8.6h3.5c.4,0,.7,0,1,.2.3,0,.5.3.8.6s.4.5.5.8.2.6.2.9,0,.9-.3,1.3c-.2.4-.5.7-.8,1s-.8.4-1.2.4h-3.3v3.4h-.4ZM242.5,54h3.3c.4,0,.8,0,1.1-.3s.6-.5.7-.9.2-.7.2-1.1,0-.8-.3-1.2c-.2-.4-.5-.6-.8-.9-.3-.2-.7-.3-1.1-.3h-3.2v4.7h.1Z"/>
  </g>
  <g class="st2">
    <path class="st0" d="M253.8,49.1h.2l3.7,8.6h-.3l-1.3-3.1h-4.5l-1.3,3.1h-.3l3.7-8.6h0ZM256,54.3l-2.1-4.9-2.1,4.9h4.3,0Z"/>
  </g>
  <g class="st2">
    <path class="st0" d="M260,53.3c0-.5,0-1,.3-1.5.2-.5.4-1,.8-1.4.3-.4.8-.7,1.3-1,.5-.2,1.1-.4,1.7-.4s1.4.2,1.9.5.9.8,1.2,1.3h-.2c-.2-.3-.5-.7-.8-.9s-.7-.4-1-.5c-.4,0-.7-.2-1.1-.2-.6,0-1.1,0-1.6.3s-.9.5-1.2.9-.6.8-.7,1.3c-.2.5-.2,1-.2,1.5s0,1.1.3,1.6c.2.5.5.9.8,1.3.3.4.7.7,1.2.9s1,.3,1.5.3.8,0,1.2-.2c.4,0,.8-.3,1.1-.6.3-.3.6-.6.8-1h.2c-.2.5-.5.8-.8,1.1-.4.3-.8.5-1.2.7-.4.2-.9.2-1.3.2s-1.1,0-1.6-.4-.9-.6-1.3-1-.6-.9-.8-1.4c-.2-.5-.3-1.1-.3-1.6l-.2.2Z"/>
    <path class="st0" d="M276.5,57.4v.2h-5.6v-8.6h5.5v.2h-5.3v3.8h4.6v.2h-4.6v4h5.4v.2Z"/>
  </g>
  <g id="Layer_1-2">
    <g>
      <g>
        <path class="st1" d="M49.2,10.3h0Z"/>
        <path class="st1" d="M50.6,26.4h-14.8c0,.1,0-.7-.4-.7H11.7c-.5,0-1,.5-1,1v5.5c0,.6.4,1,1,1h0v.2c0,.6.5,2.1,2.9,2.1h12.7c.3,0,.5-.5.5-.9h0s0-.6-.5-.6h-12.6c-.1,0-1-.2-1-.9h5.3l16.4-.2c.5,0,.4-.6.5-.7h0l14.8-.2s3-1.9,4.2-2.7c.2-.2.2-.5,0-.7-1.2-.7-4.1-2.5-4.1-2.5h0l-.2.3Z"/>
        <path class="st1" d="M9.1,28.3h.4v2.4h-.4c-1.4,0-1.7,1-1.7,2.3v10.5c0,1.3.3,2.3,1.7,2.3h.6v2.4h-.6c-2.8,0-5.1-2.1-5.1-4.7v-10.5c0-2.6,2.3-4.7,5.1-4.7h0Z"/>
        <path class="st1" d="M29.4,23.5c2.3,0,6.5-1.1,5.5-3.9-.4-.9-1.1-1.4-1.9-1.9-1.2-.8-4-1.7-2.9-3.4.3-.5.8-1,1.3-1.5h0c-1.1.2-2.4.8-2.9,1.9-.6,1.3.5,2.7,1.5,3.4,1,.8,2.2,1.3,2.9,2.2.5.8-2.9,2.6-3.6,3.2h0Z"/>
        <path class="st1" d="M20.1,23.5c2.3,0,6.5-1.1,5.5-3.9-.4-.9-1.1-1.4-1.9-1.9-1.2-.8-4-1.7-2.9-3.4.3-.5.8-1,1.3-1.5h0c-1.1.2-2.4.8-2.9,1.9-.6,1.3.5,2.7,1.5,3.4,1,.8,2.2,1.3,2.9,2.2.5.8-2.9,2.6-3.6,3.2h.1Z"/>
        <path class="st1" d="M38.7,23.5c2.3,0,6.5-1.1,5.5-3.9-.4-.9-1.1-1.4-1.9-1.9-1.2-.8-4-1.7-2.9-3.4.3-.5.8-1,1.3-1.5h0c-1.1.2-2.4.8-2.9,1.9-.6,1.3.5,2.7,1.5,3.4,1,.8,2.2,1.3,2.9,2.2.5.8-2.9,2.6-3.6,3.2h.1Z"/>
      </g>
      <path class="st1" d="M50.9,34.4h-14.4c0,1.3-6.5.7-6.5.7,0,.6-.2,2-2.1,2.1h-13.2c-1.3,0-2.3-.2-3-.5h0c-.2,0-.4-.2-.5-.3v11.4c0,6.9,5.5,12.4,12.3,12.4h19.3c6.8,0,12.3-5.6,12.3-12.4v-16.3c-2.2,1.4-4,2.8-4.1,2.8h0ZM37.7,43.4c-4.5,0-8.3,2.7-12.1,3.9-1.2.4-2.4.6-3.6.6s-2.7-.2-3.8-.6c-1.6-.6-3-1.5-3.6-2.7v-4.6h13.4c1.4,0,3.5-.9,3.6-2.1,0,0,5.3.3,5.8-.7h14.2v9.2c-4.5-2.5-11.4-3.1-13.8-3h-.1Z"/>
    </g>
  </g>
</svg>